<svg xmlns="http://www.w3.org/2000/svg" viewBox="0 0 24 24"><path fill="#F2F2F2" d="M22 2H2a1 1 0 0 0-1 1v17a2 2 0 0 0 2 2h15l5-5V3a1 1 0 0 0-1-1zM7 5.5a1.001 1.001 0 0 1 0-2 1.001 1.001 0 0 1 0 2zm10 0a1.001 1.001 0 0 1 0-2 1.001 1.001 0 0 1 0 2z"/><path d="M3 21.75a2 2 0 0 1-2-2V20a2 2 0 0 0 2 2h15v-.25H3z" opacity=".05"/><path fill="#E83628" d="M22 2H2a1 1 0 0 0-1 1v4h22V3a1 1 0 0 0-1-1zM7 5.5a1.001 1.001 0 0 1 0-2 1.001 1.001 0 0 1 0 2zm10 0a1.001 1.001 0 0 1 0-2 1.001 1.001 0 0 1 0 2z"/><path d="M1 6.75h22V7H1z" opacity=".1"/><path fill="#FFF" d="M22 2H2a1 1 0 0 0-1 1v.25a1 1 0 0 1 1-1h20a1 1 0 0 1 1 1V3a1 1 0 0 0-1-1z" opacity=".2"/><path fill="#E83628" d="M23 17l-5 5v-3a2 2 0 0 1 2-2h3z"/><path fill="#FFF" d="M20 17.25h2.75L23 17h-3a2 2 0 0 0-2 2v.25a2 2 0 0 1 2-2z" opacity=".2"/><path fill="#333" d="M10 11c-1.103 0-2 .897-2 2h1a1 1 0 111 1h-.5v1h.5a1.001 1.001 0 11-1 1H8c0 1.103.897 2 2 2s2-.897 2-2c0-.597-.263-1.133-.679-1.5.416-.367.679-.903.679-1.5 0-1.103-.897-2-2-2zM13 11v1h1v6h1v-7z"/><linearGradient id="a" x1="7.345" x2="20.012" y1="2.345" y2="15.012" gradientUnits="userSpaceOnUse"><stop offset="0" stop-opacity=".1"/><stop offset="1" stop-opacity="0"/></linearGradient><path fill="url(#a)" d="M18 22l5-5V7H1l15 15z"/><linearGradient id="b" x1="-.498" x2="23.02" y1="5.991" y2="16.957" gradientUnits="userSpaceOnUse"><stop offset="0" stop-color="#FFF" stop-opacity=".2"/><stop offset="1" stop-color="#FFF" stop-opacity="0"/></linearGradient><path fill="url(#b)" d="M22 2H2a1 1 0 0 0-1 1v17a2 2 0 0 0 2 2h15l5-5V3a1 1 0 0 0-1-1zM7 5.5a1.001 1.001 0 0 1 0-2 1.001 1.001 0 0 1 0 2zm10 0a1.001 1.001 0 0 1 0-2 1.001 1.001 0 0 1 0 2z"/></svg>