<svg xmlns="http://www.w3.org/2000/svg" viewBox="0 0 24 24"><path fill="#303c42" d="M19 13h-2v-.5a.495.495 0 0 0-.333-.466l1.586-5.155A2.495 2.495 0 0 0 20.025 4.5c0-1.313-.35-2.445-2.136-4.343a.5.5 0 0 0-.864.343c0 .751-.534 1.44-1.05 2.107-.489.631-.95 1.227-.95 1.893 0 .475.141.915.372 1.294L13.623 12H13V.5a.5.5 0 0 0-.5-.5h-4a.5.5 0 0 0-.5.5v10.131L5.982 3.366a.508.508 0 0 0-.066-.144l-2-3A.5.5 0 0 0 3 .5V4c0 .048.007.095.021.141l2.321 7.891A.495.495 0 0 0 5 12.5V22c0 1.103.897 2 2 2h8c1.103 0 2-.897 2-2v-2c2.206 0 4-1.794 4-4v-1c0-1.103-.897-2-2-2zm1 3c0 1.654-1.346 3-3 3v-5h2c.551 0 1 .449 1 1v1z"/><path fill="#546e7a" d="M16.765 3.219c.382-.493.798-1.029 1.043-1.643 1.113 1.359 1.216 2.138 1.216 2.924 0 .827-.673 1.5-1.5 1.5s-1.5-.673-1.5-1.5c0-.324.377-.81.741-1.281z"/><path fill="#fff" d="M16.142 4.806c0-.324.376-.811.741-1.281.382-.493.798-1.029 1.043-1.643.472.576.755 1.044.933 1.457-.157-.483-.459-1.04-1.051-1.762-.245.614-.661 1.15-1.043 1.643-.364.47-.741.956-.741 1.28 0 .246.065.475.171.68a1.488 1.488 0 0 1-.053-.374z" opacity=".2"/><path fill="#fff" d="M18.382 3.376c.084-.021.153-.158.104-.357-.049-.199-.202-.417-.286-.397-.084.021-.036.2.013.398s.085.377.169.356z" opacity=".2"/><path fill="#ef5350" d="M16.202 6.613c.291.183.622.303.978.352L15.631 12h-.968l1.539-5.387z"/><path fill="#f2f2f2" d="M12 1v11H9v-2h1.5a.5.5 0 0 0 0-1H9V7h1.5a.5.5 0 1 0 0-1H9V4h1.5a.5.5 0 1 0 0-1H9V1h3z"/><path d="M11 3.83a.5.5 0 0 0-.033-.165A.496.496 0 0 1 10.5 4H9v.33h1.5a.5.5 0 0 0 .5-.5zM9 1h3v.33H9zM11 6.83a.5.5 0 0 0-.033-.165A.496.496 0 0 1 10.5 7H9v.33h1.5a.5.5 0 0 0 .5-.5zm0 3a.5.5 0 0 0-.033-.165.496.496 0 0 1-.467.335H9v.33h1.5a.5.5 0 0 0 .5-.5z" opacity=".1"/><path fill="#ffca28" d="M7.342 12h-.968L4.127 4.359l1.021-.256z"/><path d="m5.148 4.103-1.021.256.28.951c.026-.005.052-.003.078-.01l.69-.172c.082-.021.156-.059.234-.089l-.261-.936z" opacity=".1"/><path fill="#546e7a" d="M4.69 3.188 4 3.36V2.152z"/><path fill="#0288d1" d="M16 22c0 .551-.449 1-1 1H7c-.551 0-1-.449-1-1v-9h10v9z"/><path fill="#fff" d="M6.875 22v-9H6v9c0 .551.449 1 1 1h.7c-.455 0-.825-.448-.825-1z" opacity=".2"/><path d="M15.125 13v9c0 .551-.37 1-.825 1h.7c.551 0 1-.449 1-1v-9h-.875z" opacity=".1"/><path fill="#fff" d="m4.69 3.188-.389.097L4 2.152z" opacity=".2"/><path d="M15.922 7.594c.299.156.617.278.959.342l.298-.97a2.486 2.486 0 0 1-.978-.352l-.279.98z" opacity=".1"/><linearGradient id="a" x1=".177" x2="21.281" y1="6.442" y2="16.283" gradientUnits="userSpaceOnUse"><stop offset="0" stop-color="#fff" stop-opacity=".2"/><stop offset="1" stop-color="#fff" stop-opacity="0"/></linearGradient><path fill="url(#a)" d="M19 13h-2v-.5a.495.495 0 0 0-.333-.466l1.586-5.155A2.495 2.495 0 0 0 20.025 4.5c0-1.313-.35-2.445-2.136-4.343a.5.5 0 0 0-.864.343c0 .751-.534 1.44-1.05 2.107-.489.631-.95 1.227-.95 1.893 0 .475.141.915.372 1.294L13.623 12H13V.5a.5.5 0 0 0-.5-.5h-4a.5.5 0 0 0-.5.5v10.131L5.982 3.366a.508.508 0 0 0-.066-.144l-2-3A.5.5 0 0 0 3 .5V4c0 .048.007.095.021.141l2.321 7.891A.495.495 0 0 0 5 12.5V22c0 1.103.897 2 2 2h8c1.103 0 2-.897 2-2v-2c2.206 0 4-1.794 4-4v-1c0-1.103-.897-2-2-2zm1 3c0 1.654-1.346 3-3 3v-5h2c.551 0 1 .449 1 1v1z"/></svg>